<svg xmlns="http://www.w3.org/2000/svg" xmlns:xlink="http://www.w3.org/1999/xlink" version="1.1" x="0px" y="0px" viewBox="0 0 100 125" style="enable-background:new 0 0 100 100;" xml:space="preserve"><path d="M75,18.5C75,18.5,75,18.4,75,18.5c-13.8-13.8-36.2-13.8-50,0c0,0,0,0,0,0c-13.8,13.8-13.8,36.3,0,50.1l22.2,22.2  c0.8,0.8,1.8,1.2,2.8,1.2s2-0.4,2.8-1.2L75,68.5C88.8,54.7,88.8,32.3,75,18.5z M50,54.5c-8,0-14.5-6.5-14.5-14.5S42,25.5,50,25.5  S64.5,32,64.5,40S58,54.5,50,54.5z"/><text x="0" y="115" fill="#000000" font-size="5px" font-weight="bold" font-family="'Helvetica Neue', Helvetica, Arial-Unicode, Arial, Sans-serif">Created by Jivan</text><text x="0" y="120" fill="#000000" font-size="5px" font-weight="bold" font-family="'Helvetica Neue', Helvetica, Arial-Unicode, Arial, Sans-serif">from the Noun Project</text></svg>